<?xml version="1.0" encoding="UTF-8" standalone="no"?>
<!-- Created with Inkscape (http://www.inkscape.org/) -->

<svg
   xmlns:dc="http://purl.org/dc/elements/1.1/"
   xmlns:cc="http://creativecommons.org/ns#"
   xmlns:rdf="http://www.w3.org/1999/02/22-rdf-syntax-ns#"
   xmlns:svg="http://www.w3.org/2000/svg"
   xmlns="http://www.w3.org/2000/svg"
   xmlns:xlink="http://www.w3.org/1999/xlink"
   xmlns:sodipodi="http://sodipodi.sourceforge.net/DTD/sodipodi-0.dtd"
   xmlns:inkscape="http://www.inkscape.org/namespaces/inkscape"
   width="48"
   height="48"
   viewBox="0 0 12.7 12.7"
   version="1.1"
   id="svg8"
   inkscape:version="0.92.5 (2060ec1f9f, 2020-04-08)"
   sodipodi:docname="darknet_server_icon.svg">
  <defs
     id="defs2">
    <linearGradient
       inkscape:collect="always"
       id="linearGradient928-6">
      <stop
         style="stop-color:#bf7a75;stop-opacity:1"
         offset="0"
         id="stop924" />
      <stop
         style="stop-color:#00000d;stop-opacity:0.99009901"
         offset="1"
         id="stop926" />
    </linearGradient>
    <linearGradient
       inkscape:collect="always"
       id="Fundo">
      <stop
         id="stop5489"
         offset="0"
         style="stop-color:#ffff40;stop-opacity:1" />
      <stop
         id="stop5487"
         offset="1"
         style="stop-color:#ff4000;stop-opacity:1" />
    </linearGradient>
    <pattern
       y="0"
       x="0"
       height="6"
       width="6"
       patternUnits="userSpaceOnUse"
       id="EMFhbasepattern" />
    <radialGradient
       inkscape:collect="always"
       xlink:href="#Fundo"
       id="radialGradient5587"
       cx="-7.2360392"
       cy="292.48044"
       fx="-7.2360392"
       fy="292.48044"
       r="4.7719498"
       gradientUnits="userSpaceOnUse"
       gradientTransform="matrix(0.73785535,-0.09433991,0.09087231,0.71073449,-18.290594,78.6949)" />
    <radialGradient
       inkscape:collect="always"
       xlink:href="#linearGradient928-6"
       id="radialGradient930"
       cx="11.008466"
       cy="294.87335"
       fx="11.008466"
       fy="294.87335"
       r="6.2416158"
       gradientUnits="userSpaceOnUse"
       gradientTransform="matrix(0.15961743,-0.48270328,1.8524411,0.61255415,-537.10882,118.91266)" />
  </defs>
  <sodipodi:namedview
     id="base"
     pagecolor="#ffffff"
     bordercolor="#666666"
     borderopacity="1.0"
     inkscape:pageopacity="0.0"
     inkscape:pageshadow="2"
     inkscape:zoom="5.6568542"
     inkscape:cx="3.754095"
     inkscape:cy="23.940428"
     inkscape:document-units="mm"
     inkscape:current-layer="layer1"
     showgrid="false"
     units="px"
     inkscape:window-width="1920"
     inkscape:window-height="1016"
     inkscape:window-x="0"
     inkscape:window-y="0"
     inkscape:window-maximized="1" />
  <metadata
     id="metadata5">
    <rdf:RDF>
      <cc:Work
         rdf:about="">
        <dc:format>image/svg+xml</dc:format>
        <dc:type
           rdf:resource="http://purl.org/dc/dcmitype/StillImage" />
        <dc:title />
      </cc:Work>
    </rdf:RDF>
  </metadata>
  <g
     inkscape:label="Camada 1"
     inkscape:groupmode="layer"
     id="layer1"
     transform="translate(0,-284.3)">
    <g
       id="g983"
       inkscape:export-xdpi="96"
       inkscape:export-ydpi="96">
      <rect
         y="284.43378"
         x="0.12406799"
         height="12.483232"
         width="12.483232"
         id="rect5677"
         style="fill:url(#radialGradient930);fill-opacity:1;stroke:none;stroke-width:0.44693556;stroke-opacity:1" />
      <ellipse
         ry="3.0021274"
         rx="2.8037317"
         style="fill:url(#radialGradient5587);fill-opacity:1;stroke:none;stroke-width:0.16086048;stroke-opacity:1"
         cy="288.04291"
         cx="3.4760635"
         id="path3901" />
      <g
         transform="matrix(1.1539654,0,0,1.1539654,0.63671177,-45.33317)"
         id="g5675">
        <path
           id="path3716"
           d="M 10.39213,286.04349 H 3.5027276 l -1.5122003,8.20963 h 6.8894022 z m -4.8540308,1.19293 0.1498975,-0.81583 h 4.141283 l -0.1498974,0.81583 z m -2.1529382,2.56487 0.2689335,-1.46438 h 1.5415919 l -0.2689333,1.46438 -0.1190364,0.64855 H 3.2661248 Z m 0.1014012,1.7505 0.1131578,-0.61774 h 5.4712551 l -0.1131579,0.61774 z m 6.1443241,-3.90892 -0.1102187,0.60453 H 7.7527599 l 0.1102188,-0.60453 z m -2.0765201,2.34623 0.017635,-0.0132 0.017635,-0.0117 0.00294,-0.004 0.00441,-0.003 0.00882,-0.006 0.00294,-0.004 0.00441,-0.003 0.00882,-0.006 0.00882,0.0103 0.00441,0.0161 -0.00147,0.009 -0.00147,0.0117 -0.00588,0.0279 -0.011757,0.0235 -0.011756,0.0235 -0.00294,10e-4 -0.00147,0.003 -0.00294,0.006 -0.00588,0.0117 -0.00294,10e-4 -0.00147,0.003 -0.00294,0.006 -0.00588,0.0117 0.00147,0.006 0.00588,0.006 0.00588,0.003 0.00882,0.004 h 0.00882 l 0.011756,0.001 0.013226,-0.001 0.016166,-10e-4 0.023513,-0.004 0.023514,-0.004 0.00294,-0.001 h 0.00441 l 0.00882,-0.004 0.024983,-0.0132 0.026453,-0.006 0.027922,-0.003 0.029391,0.004 0.00882,0.004 0.00147,0.003 0.00294,0.006 v 0.0132 l -0.00147,0.007 -0.00147,0.0103 -0.00588,0.0147 -0.00294,0.0161 0.048496,-0.0264 0.051435,-0.022 0.032331,-0.0147 0.030861,-0.0147 0.027922,-0.0147 0.024983,-0.0132 0.00441,-0.001 0.00441,0.001 0.00294,10e-4 0.00294,0.004 v 0.003 l 0.00147,0.006 -0.00294,0.0161 -0.00735,0.022 -0.00441,0.022 0.00882,-0.003 v -0.001 h 0.00147 0.00294 0.00588 l 0.00882,-0.003 v -0.001 h 0.00147 0.00294 0.00588 l 0.014696,-0.0103 0.00588,-0.006 0.00294,-0.003 v -10e-4 h 0.00147 0.00294 l 0.010287,-0.0132 0.016165,-0.009 0.016165,-0.004 0.022044,-10e-4 0.010287,-0.003 0.011756,-10e-4 0.00441,-0.003 0.00588,-0.001 0.010287,-0.003 0.016165,-0.0117 0.00882,-0.006 h 0.013226 0.00588 0.00735 l 0.00588,-10e-4 0.00588,-0.001 0.00294,-0.004 0.00441,-0.003 0.00294,-0.004 0.00294,-0.004 0.00441,-0.0103 0.010287,-0.006 0.013226,-0.003 0.017635,10e-4 0.027922,0.006 h 0.00441 l 0.00588,0.003 0.010287,0.007 0.00294,0.004 0.00441,0.007 0.00147,0.007 0.00294,0.0103 0.00882,0.0367 0.00147,0.0117 v 0.0147 l -0.00294,0.004 v 0.006 l 0.00294,0.009 0.00735,0.007 0.013226,0.004 0.00294,10e-4 0.00735,0.007 0.00147,0.001 0.00441,0.003 0.00588,10e-4 0.00882,0.003 0.014696,-10e-4 0.00735,-0.003 0.00882,-0.001 0.014695,-0.009 0.014696,-0.0117 0.00735,-0.006 0.013226,-10e-4 H 8.6433201 8.53751 l -0.013226,10e-4 -0.00735,0.006 -0.014696,0.0117 -0.014695,0.009 -0.00882,0.001 -0.00735,0.003 -0.014696,10e-4 -0.00882,-0.003 -0.00588,-10e-4 -0.00441,-0.003 -0.00147,-0.001 -0.00735,-0.007 -0.00294,-10e-4 -0.013226,-0.004 -0.00735,-0.007 -0.00294,-0.009 v -0.006 l 0.00294,-0.004 v -0.0147 l -0.00147,-0.0117 -0.00882,-0.0367 -0.00294,-0.0103 -0.00147,-0.007 -0.00441,-0.007 -0.00294,-0.004 -0.010287,-0.007 -0.00588,-0.003 h -0.00441 l -0.027922,-0.006 -0.017635,-10e-4 -0.013226,0.003 -0.010287,0.006 -0.00441,0.0103 -0.00294,0.004 -0.00294,0.004 -0.00441,0.003 -0.00294,0.004 -0.00588,0.001 -0.00588,10e-4 H 8.256784 8.250904 8.237678 l -0.00882,0.006 -0.016165,0.0117 -0.010287,0.003 -0.00588,0.001 -0.00441,0.003 -0.011756,10e-4 -0.010287,0.003 -0.022044,10e-4 -0.016165,0.004 -0.016165,0.009 -0.010287,0.0132 h -0.00294 -0.00147 v 10e-4 l -0.00294,0.003 -0.00588,0.006 -0.014696,0.0103 h -0.00588 -0.00294 -0.00147 v 0.001 l -0.00882,0.003 h -0.00588 -0.00294 -0.00147 v 0.001 l -0.00882,0.003 0.00441,-0.022 0.00735,-0.022 0.00294,-0.0161 -0.00147,-0.006 v -0.003 l -0.00294,-0.004 -0.00294,-10e-4 -0.00441,-0.001 -0.00441,0.001 -0.024983,0.0132 -0.027922,0.0147 -0.030861,0.0147 -0.032331,0.0147 -0.051435,0.022 -0.048496,0.0264 0.00294,-0.0161 0.00588,-0.0147 0.00147,-0.0103 0.00147,-0.007 v -0.0132 l -0.00294,-0.006 -0.00147,-0.003 -0.00882,-0.004 -0.029391,-0.004 -0.027922,0.003 -0.026453,0.006 -0.024983,0.0132 -0.00882,0.004 h -0.00441 l -0.00294,0.001 -0.023514,0.004 -0.023513,0.004 -0.016166,10e-4 -0.013226,0.001 -0.011756,-0.001 h -0.00882 l -0.00882,-0.004 -0.00588,-0.003 -0.00588,-0.006 -0.00147,-0.006 0.00588,-0.0117 0.00294,-0.006 0.00147,-0.003 0.00294,-10e-4 0.00588,-0.0117 0.00294,-0.006 0.00147,-0.003 0.00294,-10e-4 0.011756,-0.0235 0.011757,-0.0235 0.00588,-0.0279 0.00147,-0.0117 0.00147,-0.009 -0.00441,-0.0161 -0.00882,-0.0103 -0.00882,0.006 -0.00441,0.003 -0.00294,0.004 -0.00882,0.006 -0.00441,0.003 -0.00294,0.004 -0.017635,0.0117 -0.017635,0.0132 -0.086705,0.0499 -0.083766,0.0558 -0.011756,0.007 -0.00588,10e-4 -0.00441,0.003 H 7.350013 7.344133 7.341193 7.339723 v 0.001 l -0.020574,0.003 -0.041148,0.006 -0.042618,0.003 -0.041149,0.004 -0.185167,0.0191 -0.044088,10e-4 -0.011757,-10e-4 H 6.942935 6.922361 l -0.044087,-0.004 -0.042618,-0.006 -0.00294,-0.007 -0.00147,-0.004 -0.00294,-0.006 -0.016165,-0.006 -0.016166,-0.003 -0.017635,-0.003 H 6.760705 l -0.047027,0.001 -0.045557,0.004 H 6.656364 6.647544 l -0.013226,-0.003 -0.00588,-0.004 -0.00294,-0.003 -0.00147,-0.0103 -0.00294,-0.007 -0.00294,-0.004 -0.00441,-0.004 -0.00441,-0.001 -0.00882,-10e-4 -0.00882,10e-4 -0.020574,0.007 -0.027922,0.009 -0.026453,0.0103 -0.020574,0.006 -0.019105,0.009 -0.017635,0.007 -0.016165,0.009 -0.0338,0.0147 -0.03527,0.0103 -0.017635,0.004 -0.016166,0.006 -0.016165,10e-4 -0.011756,0.001 -0.011756,-0.001 -0.00882,-10e-4 -0.00882,-0.004 -0.00441,-0.006 -0.00441,-0.007 -0.00147,-0.009 0.00588,-0.0147 0.00147,-0.006 v -0.006 l -0.00294,-0.006 -0.00441,-0.004 -0.011756,-0.006 -0.020574,-0.006 -0.011756,-0.001 H 6.21547 l -0.016165,-10e-4 H 6.18167 l -0.038209,0.003 0.03527,-0.0308 0.038209,-0.0264 0.047027,-0.0367 0.029392,-0.0279 0.030861,-0.022 0.032331,-0.022 0.03233,-0.0161 0.00588,-0.004 0.00735,-0.003 0.00588,-0.006 0.00294,-0.003 v -10e-4 h 0.00147 0.00294 l 0.017635,-0.0191 0.020574,-0.0132 0.041148,-0.0191 0.020574,-0.007 0.022043,-10e-4 0.022044,-0.001 0.023514,0.004 -0.00294,0.0147 -0.00294,0.006 -0.00147,0.003 v 0.004 l -0.00588,0.0117 -0.010287,0.0132 -0.00441,0.004 -0.00147,0.006 -0.00588,0.0103 -0.00441,0.0117 -0.00294,10e-4 -0.00147,0.003 -0.00294,0.006 -0.00588,0.0103 -0.00882,0.007 -0.00735,0.009 -0.00882,0.006 -0.00441,0.003 -0.00294,0.004 -0.019105,0.0147 -0.013226,0.0205 -0.010287,0.0249 -0.00294,0.0308 0.00294,-0.0308 0.010287,-0.0249 0.013226,-0.0205 0.019105,-0.0147 0.00294,-0.004 0.00441,-0.003 0.00882,-0.006 0.00735,-0.009 0.00882,-0.007 0.00588,-0.0103 0.00294,-0.006 0.00147,-0.003 0.00294,-10e-4 0.00441,-0.0117 0.00588,-0.0103 0.00147,-0.006 0.00441,-0.004 0.010287,-0.0132 0.00588,-0.0117 v -0.004 l 0.00147,-0.003 0.00294,-0.006 0.00294,-0.0147 -0.023514,-0.004 -0.022044,0.001 -0.022043,10e-4 -0.020574,0.007 -0.041148,0.0191 -0.020574,0.0132 -0.017635,0.0191 h -0.00294 -0.00147 v 10e-4 l -0.00294,0.003 -0.00588,0.006 -0.00735,0.003 -0.00588,0.004 -0.03233,0.0161 -0.032331,0.022 -0.030861,0.022 -0.029392,0.0279 -0.047027,0.0367 -0.038209,0.0264 -0.03527,0.0308 0.038209,-0.003 h 0.017635 l 0.016165,10e-4 h 0.013226 l 0.011756,0.001 0.020574,0.006 0.011756,0.006 0.00441,0.004 0.00294,0.006 v 0.006 l -0.00147,0.006 -0.00588,0.0147 0.00147,0.009 0.00441,0.007 0.00441,0.006 0.00882,0.004 0.00882,10e-4 0.011756,0.001 0.011756,-0.001 0.016165,-10e-4 0.016166,-0.006 0.017635,-0.004 0.03527,-0.0103 0.0338,-0.0147 0.016165,-0.009 0.017635,-0.007 0.019105,-0.009 0.020574,-0.006 0.026453,-0.0103 0.027922,-0.009 0.020574,-0.007 0.00882,-10e-4 0.00882,10e-4 0.00441,0.001 0.00441,0.004 0.00294,0.004 0.00294,0.007 0.00147,0.0103 0.00294,0.003 0.00588,0.004 0.013226,0.003 h 0.00882 0.011757 l 0.045557,-0.004 0.047027,-0.001 H 6.77834 l 0.017635,0.003 0.016166,0.003 0.016165,0.006 0.00294,0.006 0.00147,0.004 0.00294,0.007 0.042618,0.006 0.044087,0.004 h 0.020574 0.010287 l 0.011757,10e-4 0.044088,-10e-4 0.185167,-0.0191 0.041149,-0.004 0.042618,-0.003 0.041148,-0.006 0.020574,-0.003 v -0.001 h 0.00147 0.00294 0.00588 0.011757 l 0.00441,-0.003 0.00588,-10e-4 0.011756,-0.007 0.083766,-0.0558 z m 1.8825351,-1.21347 -0.1601846,0.87452 H 5.2412436 l 0.1601843,-0.87452 z m -2.0030407,-1.10195 -0.1102188,0.60307 H 5.5542645 l 0.1102188,-0.60307 z m -0.2601163,4.28603 h 1.819343 l -0.3335949,1.81653 H 6.840149 Z m -1.7649685,-1.65954 h 3.5666765 z m -2.642309,1.62872 h 4.110422 l -0.3306563,1.796 H 2.4358108 Z"
           style="fill:#ccffcc;fill-opacity:1;fill-rule:evenodd;stroke:none;stroke-width:0.03886073"
           inkscape:connector-curvature="0" />
        <path
           id="path3718"
           d="m 5.6879967,286.42059 -0.1498975,0.81583 h 4.1412831 l 0.1498974,-0.81583 z"
           style="fill:#99cccc;fill-opacity:1;fill-rule:evenodd;stroke:none;stroke-width:0.03886073"
           inkscape:connector-curvature="0" />
        <path
           id="path3720"
           d="m 4.0067943,288.6245 0.044087,-0.0382 0.047027,-0.0308 0.047027,-0.0264 0.048496,-0.0205 0.048496,-0.0176 0.051435,-0.0103 0.051436,-0.007 h 0.054374 l 0.024983,-0.001 0.026452,0.001 0.048496,0.007 0.045557,0.0103 0.044087,0.0176 0.019104,0.009 0.020574,0.0117 0.038209,0.0264 0.0338,0.0308 0.016166,0.0176 0.017635,0.0205 0.027922,0.0367 0.023513,0.0411 0.017635,0.0425 0.013226,0.0455 0.00735,0.0455 0.00294,0.0484 -0.00147,0.0499 -0.00588,0.0528 -0.00441,0.0117 -0.00294,0.0132 -0.00588,0.0264 -0.016165,0.0499 -0.011756,0.0235 -0.00588,0.0117 -0.00294,0.006 -0.00147,0.003 v 0.004 l -0.023513,0.0469 -0.030861,0.044 -0.017635,0.0206 -0.00882,0.0103 -0.00735,0.0117 -0.038209,0.0411 -0.041149,0.0411 -0.029392,0.0205 -0.027922,0.0205 -0.029392,0.0191 -0.027922,0.0176 -0.036739,0.20543 0.4776144,0.16581 0.2689334,-1.46438 H 3.6540966 l -0.2689335,1.46438 0.5378671,-0.16581 0.036739,-0.20249 -0.045557,-0.0381 -0.022044,-0.022 -0.019105,-0.0205 -0.029392,-0.0411 -0.023513,-0.0411 -0.019105,-0.0426 -0.011757,-0.044 -0.00882,-0.047 -0.00147,-0.0484 0.00147,-0.0499 0.00294,-0.0264 0.00588,-0.0249 0.010287,-0.0528 0.016165,-0.0499 0.020574,-0.0484 0.026452,-0.0455 0.027922,-0.0455 0.0338,-0.0425 0.038209,-0.0411 z"
           style="fill:#99cccc;fill-opacity:1;fill-rule:evenodd;stroke:none;stroke-width:0.03886073"
           inkscape:connector-curvature="0" />
        <path
           id="path3722"
           d="m 4.3991727,288.47337 h -0.054374 l -0.051436,0.007 -0.051435,0.0103 -0.048496,0.0176 -0.048496,0.0206 -0.047027,0.0264 -0.047027,0.0308 -0.044087,0.0382 -0.044088,0.0367 -0.038209,0.0411 -0.0338,0.0426 -0.027922,0.0455 -0.026453,0.0455 -0.020574,0.0484 -0.016165,0.0499 -0.010287,0.0528 -0.00588,0.0249 -0.00294,0.0264 -0.00147,0.0499 0.00147,0.0484 0.00882,0.047 0.011757,0.044 0.019105,0.0426 0.023513,0.0411 0.029392,0.0411 0.019104,0.0205 0.022044,0.022 0.045557,0.0382 -0.036739,0.20249 -0.5378672,0.16581 -0.1190362,0.64855 h 1.5415919 l 0.1190363,-0.64855 -0.4776143,-0.16581 0.036739,-0.20542 0.027922,-0.0176 0.029392,-0.0191 0.027922,-0.0205 0.029392,-0.0205 0.041149,-0.0411 0.038209,-0.0411 0.00735,-0.0117 0.00882,-0.0103 0.017635,-0.0205 0.030861,-0.044 0.023513,-0.047 v -0.004 l 0.00147,-0.003 0.00294,-0.006 0.00588,-0.0117 0.011756,-0.0235 0.016165,-0.0499 0.00588,-0.0264 0.00294,-0.0132 0.00441,-0.0117 0.00588,-0.0528 0.00147,-0.0499 -0.00294,-0.0484 -0.00735,-0.0455 -0.013226,-0.0455 -0.017635,-0.0426 -0.023513,-0.0411 -0.027922,-0.0367 -0.017635,-0.0205 -0.016166,-0.0176 -0.0338,-0.0308 -0.038209,-0.0264 -0.020574,-0.0117 -0.019104,-0.009 -0.044087,-0.0176 -0.045557,-0.0103 -0.048496,-0.007 -0.026453,-0.001 z"
           style="fill:#9999cc;fill-opacity:1;fill-rule:evenodd;stroke:none;stroke-width:0.03886073"
           inkscape:connector-curvature="0" />
        <path
           id="path3724"
           d="m 3.59972,290.93405 -0.1131578,0.61774 h 5.471255 l 0.1131579,-0.61774 z"
           style="fill:#99ff99;fill-opacity:1;fill-rule:evenodd;stroke:none;stroke-width:0.03886073"
           inkscape:connector-curvature="0" />
        <path
           id="path3726"
           d="m 9.5206676,288.2474 0.1102187,-0.60453 H 7.8629787 l -0.1102188,0.60453 z"
           style="fill:#99ff99;fill-opacity:1;fill-rule:evenodd;stroke:none;stroke-width:0.03886073"
           inkscape:connector-curvature="0" />
        <path
           id="path3728"
           d="m 9.2767167,289.65015 0.1601846,-0.87452 H 5.4014279 l -0.1601843,0.87452 z"
           style="fill:#99ff99;fill-opacity:1;fill-rule:evenodd;stroke:none;stroke-width:0.03886073"
           inkscape:connector-curvature="0" />
        <path
           id="path3730"
           d="m 7.3236418,288.27675 0.1102188,-0.60307 H 5.6644833 l -0.1102188,0.60307 z"
           style="fill:#99ff99;fill-opacity:1;fill-rule:evenodd;stroke:none;stroke-width:0.03886073"
           inkscape:connector-curvature="0" />
        <path
           id="path3732"
           d="M 8.9930873,291.95971 H 7.1737443 L 6.840149,293.77624 H 8.6594924 Z"
           style="fill:#ffcc66;fill-opacity:1;fill-rule:evenodd;stroke:none;stroke-width:0.03886073"
           inkscape:connector-curvature="0" />
        <path
           id="path3734"
           d="m 6.8768888,291.92889 h -4.110422 l -0.330656,1.796 h 4.1104217 z"
           style="fill:#ffcc66;fill-opacity:1;fill-rule:evenodd;stroke:none;stroke-width:0.03886073"
           inkscape:connector-curvature="0" />
        <path
           id="path3736"
           d="m 8.6433267,290.1329 h -0.10581 l -0.013226,10e-4 -0.00735,0.006 -0.014696,0.0117 -0.014695,0.009 -0.00882,0.001 -0.00735,0.003 -0.014696,10e-4 -0.00882,-0.003 -0.00588,-10e-4 -0.00441,-0.003 -0.00147,-10e-4 -0.00735,-0.007 -0.00294,-10e-4 -0.013226,-0.004 -0.00735,-0.007 -0.00294,-0.009 v -0.006 l 0.00294,-0.004 v -0.0147 l -0.00147,-0.0117 -0.00882,-0.0367 -0.00294,-0.0103 -0.00147,-0.007 -0.00441,-0.007 -0.00294,-0.004 -0.010287,-0.007 -0.00588,-0.003 h -0.00441 l -0.027922,-0.006 -0.017635,-0.001 -0.013226,0.003 -0.010287,0.006 -0.00441,0.0103 -0.00294,0.004 -0.00294,0.004 -0.00441,0.003 -0.00294,0.004 -0.00588,10e-4 -0.00588,0.001 h -0.00735 -0.00588 -0.013226 l -0.00882,0.006 -0.016165,0.0117 -0.010287,0.003 -0.00588,0.001 -0.00441,0.003 -0.011756,10e-4 -0.010287,0.003 -0.022044,0.001 -0.016165,0.004 -0.016165,0.009 -0.010287,0.0132 h -0.00294 -0.00147 v 10e-4 l -0.00294,0.003 -0.00588,0.006 -0.014696,0.0103 h -0.00588 -0.00294 -0.00147 v 0.001 l -0.00882,0.003 h -0.00588 -0.00294 -0.00147 v 10e-4 l -0.00882,0.003 0.00441,-0.022 0.00735,-0.022 0.00294,-0.0161 -0.00147,-0.006 v -0.003 l -0.00294,-0.004 -0.00294,-0.001 -0.00441,-10e-4 -0.00441,10e-4 -0.024983,0.0132 -0.027922,0.0147 -0.030861,0.0147 -0.032331,0.0147 -0.051435,0.022 -0.048496,0.0264 0.00294,-0.0161 0.00588,-0.0147 0.00147,-0.0103 0.00147,-0.007 v -0.0132 l -0.00294,-0.006 -0.00147,-0.003 -0.00882,-0.004 -0.029392,-0.004 -0.027922,0.003 -0.026453,0.006 -0.024983,0.0132 -0.00882,0.004 h -0.00441 l -0.00294,10e-4 -0.023514,0.004 -0.023513,0.004 -0.016166,10e-4 -0.013226,0.001 -0.011756,-0.001 h -0.00882 l -0.00882,-0.004 -0.00588,-0.003 -0.00588,-0.006 -0.00147,-0.006 0.00588,-0.0117 0.00294,-0.006 0.00147,-0.003 0.00294,-0.001 0.00588,-0.0117 0.00294,-0.006 0.00147,-0.003 0.00294,-10e-4 0.011756,-0.0235 0.011757,-0.0235 0.00588,-0.0279 0.00147,-0.0117 0.00147,-0.009 -0.00441,-0.0161 -0.00882,-0.0103 -0.00882,0.006 -0.00441,0.003 -0.00294,0.004 -0.00882,0.006 -0.00441,0.003 -0.00294,0.004 -0.017635,0.0117 -0.017635,0.0132 -0.086705,0.0499 -0.083766,0.0558 -0.011756,0.007 -0.00588,0.001 -0.00441,0.003 h -0.011757 -0.00588 -0.00294 -0.00147 v 10e-4 l -0.020574,0.003 -0.041148,0.006 -0.042618,0.003 -0.041149,0.004 -0.185167,0.0191 -0.044088,0.001 -0.011757,-0.001 h -0.010287 -0.020574 l -0.044087,-0.004 -0.042618,-0.006 -0.00294,-0.007 -0.00147,-0.004 -0.00294,-0.006 -0.016165,-0.006 -0.016166,-0.003 -0.017635,-0.003 H 6.760797 l -0.047027,0.001 -0.045557,0.004 H 6.656456 6.647636 l -0.013226,-0.003 -0.00588,-0.004 -0.00294,-0.003 -0.00147,-0.0103 -0.00294,-0.007 -0.00294,-0.004 -0.00441,-0.004 -0.00441,-10e-4 -0.00882,-10e-4 -0.00882,10e-4 -0.020574,0.007 -0.027922,0.009 -0.026453,0.0103 -0.020574,0.006 -0.019105,0.009 -0.017635,0.007 -0.016165,0.009 -0.0338,0.0147 -0.03527,0.0103 -0.017635,0.004 -0.016166,0.006 -0.016165,10e-4 -0.011756,10e-4 -0.011756,-10e-4 -0.00882,-10e-4 -0.00882,-0.004 -0.00441,-0.006 -0.00441,-0.007 -0.00147,-0.009 0.00588,-0.0147 0.00147,-0.006 v -0.006 l -0.00294,-0.006 -0.00441,-0.004 -0.011756,-0.006 -0.020574,-0.006 -0.011756,-0.001 H 6.215562 l -0.016165,-10e-4 H 6.181762 l -0.038209,0.003 0.03527,-0.0308 0.038209,-0.0264 0.047027,-0.0367 0.029391,-0.0279 0.030861,-0.022 0.032331,-0.022 0.03233,-0.0161 0.00588,-0.004 0.00735,-0.003 0.00588,-0.006 0.00294,-0.003 v -10e-4 h 0.00147 0.00294 l 0.017635,-0.0191 0.020574,-0.0132 0.041148,-0.0191 0.020574,-0.007 0.022043,-0.001 0.022044,-10e-4 0.023514,0.004 -0.00294,0.0147 -0.00294,0.006 -0.00147,0.003 v 0.004 l -0.00588,0.0117 -0.010287,0.0132 -0.00441,0.004 -0.00147,0.006 -0.00588,0.0103 -0.00441,0.0117 -0.00294,0.001 -0.00147,0.003 -0.00294,0.006 -0.00588,0.0103 -0.00882,0.007 -0.00735,0.009 -0.00882,0.006 -0.00441,0.003 -0.00294,0.004 -0.019105,0.0147 -0.013226,0.0205 -0.010287,0.0249 -0.00294,0.0308"
           style="fill:none;stroke:#000000;stroke-width:0.02645248px;stroke-linecap:round;stroke-linejoin:round;stroke-miterlimit:4;stroke-dasharray:none;stroke-opacity:1"
           inkscape:connector-curvature="0" />
        <path
           id="path3738"
           d="M 9.4369013,288.77563 H 5.4014279 l -0.1601843,0.87452 h 4.0354731 l 0.1601846,-0.87452"
           style="fill:none;stroke:#0066cc;stroke-width:0.10434034px;stroke-linecap:round;stroke-linejoin:round;stroke-miterlimit:4;stroke-dasharray:none;stroke-opacity:1"
           inkscape:connector-curvature="0" />
        <path
           id="path3740"
           d="m 3.385161,289.80129 0.2689335,-1.46438 h 1.5415919 l -0.2689333,1.46438"
           style="fill:none;stroke:#0066cc;stroke-width:0.10434034px;stroke-linecap:round;stroke-linejoin:round;stroke-miterlimit:4;stroke-dasharray:none;stroke-opacity:1"
           inkscape:connector-curvature="0" />
        <path
           id="path3742"
           d="m 3.4865622,291.55179 h 5.471255 l 0.1131579,-0.61774 H 3.59972 l -0.1131578,0.61774"
           style="fill:none;stroke:#0066cc;stroke-width:0.10434034px;stroke-linecap:round;stroke-linejoin:round;stroke-miterlimit:4;stroke-dasharray:none;stroke-opacity:1"
           inkscape:connector-curvature="0" />
        <path
           id="path3744"
           d="m 3.385161,289.80129 -0.1190362,0.64855 h 1.5415919 l 0.1190364,-0.64855"
           style="fill:none;stroke:#0066cc;stroke-width:0.10434034px;stroke-linecap:round;stroke-linejoin:round;stroke-miterlimit:4;stroke-dasharray:none;stroke-opacity:1"
           inkscape:connector-curvature="0" />
        <path
           id="path3746"
           d="M 9.6308863,287.64287 H 7.8629787 l -0.1102188,0.60453 h 1.7679077 l 0.1102187,-0.60453"
           style="fill:none;stroke:#0066cc;stroke-width:0.10434034px;stroke-linecap:round;stroke-linejoin:round;stroke-miterlimit:4;stroke-dasharray:none;stroke-opacity:1"
           inkscape:connector-curvature="0" />
        <path
           id="path3748"
           d="m 5.5380992,287.23642 h 4.1412831 l 0.1498974,-0.81583 h -4.141283 l -0.1498975,0.81583"
           style="fill:none;stroke:#0066cc;stroke-width:0.10434034px;stroke-linecap:round;stroke-linejoin:round;stroke-miterlimit:4;stroke-dasharray:none;stroke-opacity:1"
           inkscape:connector-curvature="0" />
        <path
           id="path3750"
           d="m 4.9267531,289.80129 -0.4776144,-0.16581 0.036739,-0.20543 0.027922,-0.0176 0.029392,-0.0191 0.027922,-0.0205 0.029392,-0.0205 0.041149,-0.0411 0.038209,-0.0411 0.00735,-0.0117 0.00882,-0.0103 0.017635,-0.0205 0.030861,-0.044 0.023513,-0.047 v -0.004 l 0.00147,-0.003 0.00294,-0.006 0.00588,-0.0117 0.011756,-0.0235 0.016165,-0.0499 0.00588,-0.0264 0.00294,-0.0132 0.00441,-0.0117 0.00588,-0.0528 0.00147,-0.0499 -0.00294,-0.0484 -0.00735,-0.0455 -0.013226,-0.0455 -0.017635,-0.0426 -0.023513,-0.0411 -0.027922,-0.0367 -0.017635,-0.0205 -0.016166,-0.0176 -0.0338,-0.0308 -0.038209,-0.0264 -0.020574,-0.0117 -0.019104,-0.009 -0.044088,-0.0176 -0.045557,-0.0103 -0.048496,-0.007 -0.026453,-0.001 -0.024983,0.001 h -0.054374 l -0.051436,0.007 -0.051435,0.0103 -0.048496,0.0176 -0.048496,0.0205 -0.047027,0.0264 -0.047027,0.0308 -0.044087,0.0381 -0.044088,0.0367 -0.038209,0.0411 -0.0338,0.0426 -0.027922,0.0455 -0.026452,0.0455 -0.020574,0.0484 -0.016165,0.0499 -0.010287,0.0528 -0.00588,0.0249 -0.00294,0.0264 -0.00147,0.0499 0.00147,0.0484 0.00882,0.047 0.011757,0.044 0.019105,0.0426 0.023513,0.0411 0.029392,0.0411 0.019105,0.0205 0.022044,0.022 0.045557,0.0381 -0.036739,0.20249 -0.5378672,0.16581"
           style="fill:none;stroke:#0066cc;stroke-width:0.10434034px;stroke-linecap:round;stroke-linejoin:round;stroke-miterlimit:4;stroke-dasharray:none;stroke-opacity:1"
           inkscape:connector-curvature="0" />
        <path
           id="path3752"
           d="M 7.4338606,287.67368 H 5.6644833 l -0.1102188,0.60307 h 1.7693773 l 0.1102188,-0.60307"
           style="fill:none;stroke:#0066cc;stroke-width:0.10434034px;stroke-linecap:round;stroke-linejoin:round;stroke-miterlimit:4;stroke-dasharray:none;stroke-opacity:1"
           inkscape:connector-curvature="0" />
        <path
           id="path3754"
           d="m 7.1737443,291.95971 -0.3335953,1.81653 h 1.8193434 l 0.3335949,-1.81653 h -1.819343"
           style="fill:none;stroke:#0066cc;stroke-width:0.10434034px;stroke-linecap:round;stroke-linejoin:round;stroke-miterlimit:4;stroke-dasharray:none;stroke-opacity:1"
           inkscape:connector-curvature="0" />
        <path
           id="path3756"
           d="M 8.9754523,290.30017 H 5.4087758"
           style="fill:none;stroke:#0066cc;stroke-width:0.10434034px;stroke-linecap:round;stroke-linejoin:round;stroke-miterlimit:4;stroke-dasharray:none;stroke-opacity:1"
           inkscape:connector-curvature="0" />
        <path
           id="path3758"
           d="m 2.7664668,291.92889 -0.330656,1.796 h 4.1104217 l 0.3306563,-1.796 h -4.110422"
           style="fill:none;stroke:#0066cc;stroke-width:0.10434034px;stroke-linecap:round;stroke-linejoin:round;stroke-miterlimit:4;stroke-dasharray:none;stroke-opacity:1"
           inkscape:connector-curvature="0" />
        <path
           id="path3760"
           d="m 3.5027276,286.04349 -1.5122003,8.20963 H 8.8799295 L 10.39213,286.04349 H 3.5027276"
           style="fill:none;stroke:#0066cc;stroke-width:0.10434034px;stroke-linecap:round;stroke-linejoin:round;stroke-miterlimit:4;stroke-dasharray:none;stroke-opacity:1"
           inkscape:connector-curvature="0" />
        <path
           id="path3762"
           d="m 4.2948325,286.27386 -0.052905,0.0147 -0.049965,0.0176 -0.095523,0.0411 -0.047027,0.022 -0.044087,0.0264 -0.042618,0.0264 -0.039679,0.0308 -0.041148,0.0293 -0.038209,0.0337 -0.038209,0.0352 -0.03527,0.0382 -0.03527,0.0381 -0.032331,0.0411 -0.032331,0.0426 -0.029392,0.0455 -0.019105,0.0646 -0.014696,0.066 -0.011757,0.0646 -0.00735,0.0675 -0.00441,0.044 v 0.0455 0.0426 l 0.00441,0.044 0.010287,0.0851 0.00735,0.0411 0.011757,0.0426 0.024983,0.0792 0.014696,0.0382 0.017635,0.0396 0.017635,0.0367 0.022044,0.0382 0.022044,0.0367 0.026452,0.0382 0.039679,0.047 0.020574,0.022 0.023513,0.0235 0.048496,0.0411 0.054374,0.0382 0.0338,0.0191 0.03527,0.0191 0.03674,0.0161 0.038209,0.0147 0.038209,0.0117 0.038209,0.0103 0.039678,0.007 0.041148,0.006 0.039679,0.001 h 0.041148 l 0.042618,-0.001 0.044087,-0.003 0.044087,-0.006 0.044088,-0.007 0.045557,-0.0103 0.047027,-0.0117 0.020574,-0.009 0.022044,-0.009 0.020574,-0.0103 0.010287,-0.006 0.011756,-0.004 0.041149,-0.0249 0.041148,-0.0279 0.038209,-0.0352 0.038209,-0.0337 0.036739,-0.0352 0.03674,-0.0352 0.0338,-0.0381 0.0338,-0.0381 0.014696,-0.0205 0.00294,-0.006 0.00441,-0.004 0.00882,-0.009 0.032331,-0.0382 0.00588,-0.0117 0.00294,-0.006 0.00441,-0.004 0.014696,-0.0205 0.029392,-0.0426 0.026453,-0.044 0.026452,-0.0426 0.023513,-0.047 0.023513,-0.0455 0.020574,-0.047 0.022044,-0.0469 0.019105,-0.0499 0.016165,-0.0499 0.013226,-0.0499 0.011757,-0.0469 0.00441,-0.0499 0.00441,-0.047 v -0.0469 l -0.00147,-0.044 -0.00735,-0.044 -0.00735,-0.0411 -0.010287,-0.0411 -0.013226,-0.0382 -0.019105,-0.0381 -0.019105,-0.0352 -0.023513,-0.0352 -0.024983,-0.0323 -0.030861,-0.0323 -0.030861,-0.0293 -0.03527,-0.0294 -0.03674,-0.0264 -0.042618,-0.0249 -0.041148,-0.022 -0.044087,-0.0205 -0.042618,-0.0161 -0.045557,-0.0162 -0.045557,-0.0103 -0.047026,-0.0103 -0.045557,-0.004 -0.049966,-0.004 -0.048496,-10e-4 h -0.049966 l -0.048496,0.004 -0.052905,0.004 -0.051435,0.0103 -0.052905,0.0103 z m -0.5496238,0.84811 0.019105,-0.0807 0.027922,-0.0748 0.019105,-0.0455 0.022044,-0.044 0.024983,-0.0426 0.027922,-0.0396 0.030861,-0.0396 0.0338,-0.0381 0.036739,-0.0367 0.042618,-0.0337 0.057314,-0.047 0.058783,-0.0381 0.060253,-0.0352 0.063192,-0.0264 0.061722,-0.0235 0.064662,-0.0147 0.066131,-0.009 0.067601,-0.003 h 0.011757 0.032331 l 0.0338,0.003 0.032331,0.003 0.032331,0.006 0.029392,0.006 0.030861,0.009 0.029392,0.009 0.029392,0.0132 0.024983,0.0117 0.026452,0.0147 0.024983,0.0161 0.024983,0.0191 0.022044,0.0176 0.023513,0.022 0.022044,0.022 0.022044,0.0249 0.020574,0.0264 0.019105,0.0293 0.032331,0.0602 0.013226,0.0308 0.011757,0.0323 0.017635,0.066 -0.00147,0.004 0.00588,0.0514 0.00147,0.0558 -0.00441,0.0572 -0.00735,0.0616 -0.00882,0.0323 -0.00882,0.0337 -0.010287,0.0323 -0.00588,0.0161 -0.00441,0.0176 -0.00735,0.0147 -0.00588,0.0161 -0.013226,0.0323 -0.032331,0.0616 -0.00588,0.006 -0.00294,0.003 -0.00147,0.004 -0.00882,0.0147 -0.019105,0.0293 -0.044088,0.0558 -0.049966,0.0528 -0.014696,0.0117 -0.00735,0.006 -0.00588,0.007 -0.026452,0.0264 -0.00882,0.004 -0.00735,0.006 -0.014695,0.0117 -0.029392,0.022 -0.030861,0.0205 -0.029392,0.0205 -0.03233,0.0161 -0.00882,0.003 -0.00441,10e-4 -0.00294,0.003 -0.014696,0.009 -0.061723,0.0294 -0.017635,0.004 -0.016165,0.006 -0.032331,0.0103 -0.0338,0.009 -0.032331,0.007 -0.067601,0.009 -0.03527,0.003 -0.032331,0.001 -0.057314,-0.003 -0.052905,-0.006 -0.051435,-0.0117 -0.048496,-0.0132 -0.047027,-0.0191 -0.042618,-0.022 -0.041148,-0.0264 -0.036739,-0.0293 -0.032331,-0.0308 -0.029392,-0.0352 -0.020574,-0.0264 -0.017635,-0.0249 -0.030861,-0.0528 -0.023513,-0.0558 -0.010287,-0.0293 -0.00588,-0.0279 -0.011756,-0.0616 -0.00294,-0.0323 v -0.0308 -0.0337 l 0.00294,-0.0323 0.00294,-0.0337 z"
           style="fill:#669933;fill-opacity:1;fill-rule:evenodd;stroke:none;stroke-width:0.03886073"
           inkscape:connector-curvature="0" />
        <path
           id="path3764"
           d="m 4.1552221,287.19093 -0.3629867,-0.2245 -0.027922,0.0748 -0.019105,0.0807 -0.00735,0.0323 -0.00294,0.0337 -0.00294,0.0323 v 0.0337 0.0308 l 0.00294,0.0323 0.011756,0.0616 0.00588,0.0279 0.010287,0.0293 0.023513,0.0558 0.030861,0.0528 0.017635,0.0249 0.020574,0.0264 0.029392,0.0352 0.032331,0.0308 z"
           style="fill:#999933;fill-opacity:1;fill-rule:evenodd;stroke:none;stroke-width:0.03886073"
           inkscape:connector-curvature="0" />
        <path
           id="path3766"
           d="m 3.7922354,286.96643 0.3629867,0.2245 -0.2380723,0.47101 0.4849619,-0.31547 0.405605,0.24944 -0.1072797,-0.44166 0.3953179,-0.25825 0.00147,-0.004 -0.4526315,0.0293 -0.1146274,-0.471 -0.2454204,0.49155 z"
           style="fill:#ffcc33;fill-opacity:1;fill-rule:evenodd;stroke:none;stroke-width:0.03886073"
           inkscape:connector-curvature="0" />
        <path
           id="path3768"
           d="m 3.7922354,286.96643 0.4923098,-0.0249 0.2454204,-0.49155 -0.067601,0.003 -0.066131,0.009 -0.064662,0.0147 -0.061722,0.0235 -0.063192,0.0264 -0.060253,0.0352 -0.058783,0.0382 -0.057314,0.047 -0.042618,0.0337 -0.036739,0.0367 -0.0338,0.0381 -0.030861,0.0396 -0.027922,0.0396 -0.024983,0.0426 -0.022044,0.044 z"
           style="fill:#999933;fill-opacity:1;fill-rule:evenodd;stroke:none;stroke-width:0.03886073"
           inkscape:connector-curvature="0" />
        <path
           id="path3770"
           d="m 4.5417225,286.44994 h -0.011757 l 0.1146275,0.47101 0.4526315,-0.0294 -0.017635,-0.066 -0.011757,-0.0323 -0.013226,-0.0308 -0.032331,-0.0602 -0.019105,-0.0293 -0.020574,-0.0264 -0.022044,-0.0249 -0.022044,-0.022 -0.023513,-0.022 -0.022044,-0.0176 -0.024983,-0.0191 -0.024983,-0.0161 -0.026452,-0.0147 -0.024983,-0.0117 -0.029392,-0.0132 -0.029392,-0.009 -0.030861,-0.009 -0.029392,-0.006 -0.032331,-0.006 -0.032331,-0.003 -0.0338,-0.003 z"
           style="fill:#999933;fill-opacity:1;fill-rule:evenodd;stroke:none;stroke-width:0.03886073"
           inkscape:connector-curvature="0" />
        <path
           id="path3772"
           d="m 4.8077167,287.59591 -0.405605,-0.24944 -0.4849619,0.31547 0.03674,0.0293 0.041148,0.0264 0.042618,0.022 0.047027,0.0191 0.048496,0.0132 0.051435,0.0117 0.052905,0.006 0.057314,0.003 0.032331,-0.001 0.03527,-0.003 0.067601,-0.009 0.032331,-0.007 0.0338,-0.009 0.032331,-0.0103 0.016165,-0.006 0.017635,-0.004 0.061722,-0.0294 0.014696,-0.009 0.00294,-0.003 0.00441,-10e-4 0.00882,-0.003 0.03233,-0.0161 0.029392,-0.0205 0.030861,-0.0205 0.029392,-0.022 0.014695,-0.0117 0.00735,-0.006 z"
           style="fill:#999933;fill-opacity:1;fill-rule:evenodd;stroke:none;stroke-width:0.03886073"
           inkscape:connector-curvature="0" />
        <path
           id="path3774"
           d="m 4.700437,287.15425 0.1072797,0.44166 0.026452,-0.0264 0.00588,-0.007 0.00735,-0.006 0.014696,-0.0117 0.049966,-0.0528 0.044088,-0.0558 0.019105,-0.0293 0.00882,-0.0147 0.00147,-0.004 0.00294,-0.003 0.00588,-0.006 0.032331,-0.0616 0.013226,-0.0323 0.00588,-0.0161 0.00735,-0.0147 0.00441,-0.0176 0.00588,-0.0161 0.010287,-0.0323 0.00882,-0.0337 0.00882,-0.0323 0.00735,-0.0616 0.00441,-0.0572 -0.00147,-0.0558 -0.00588,-0.0514 z"
           style="fill:#999933;fill-opacity:1;fill-rule:evenodd;stroke:none;stroke-width:0.03886073"
           inkscape:connector-curvature="0" />
        <path
           id="path3776"
           d="m 5.0972245,286.8916 -0.017635,-0.066 -0.011757,-0.0323 -0.013226,-0.0308 -0.032331,-0.0602 -0.019105,-0.0293 -0.020574,-0.0264 -0.022044,-0.0249 -0.022044,-0.022 -0.023513,-0.022 -0.022044,-0.0176 -0.024983,-0.0191 -0.024983,-0.0161 -0.026453,-0.0147 -0.024983,-0.0117 -0.029392,-0.0132 -0.029392,-0.009 -0.030861,-0.009 -0.029392,-0.006 -0.032331,-0.006 -0.032331,-0.003 -0.0338,-0.003 h -0.032331 -0.011757"
           style="fill:none;stroke:#000000;stroke-width:0.02645248px;stroke-linecap:round;stroke-linejoin:round;stroke-miterlimit:4;stroke-dasharray:none;stroke-opacity:1"
           inkscape:connector-curvature="0" />
        <path
           id="path3778"
           d="m 3.7922354,286.96643 0.3629867,0.2245 -0.2380723,0.47101"
           style="fill:none;stroke:#000000;stroke-width:0.02645248px;stroke-linecap:round;stroke-linejoin:round;stroke-miterlimit:4;stroke-dasharray:none;stroke-opacity:1"
           inkscape:connector-curvature="0" />
        <path
           id="path3780"
           d="m 3.7922354,286.96643 -0.027922,0.0748 -0.019105,0.0807 -0.00735,0.0323 -0.00294,0.0337 -0.00294,0.0323 v 0.0337 0.0308 l 0.00294,0.0323 0.011756,0.0616 0.00588,0.0279 0.010287,0.0293 0.023513,0.0558 0.030861,0.0528 0.017635,0.0249 0.020574,0.0264 0.029392,0.0352 0.032331,0.0308"
           style="fill:none;stroke:#000000;stroke-width:0.02645248px;stroke-linecap:round;stroke-linejoin:round;stroke-miterlimit:4;stroke-dasharray:none;stroke-opacity:1"
           inkscape:connector-curvature="0" />
        <path
           id="path3782"
           d="m 4.5299656,286.44994 -0.2454204,0.49155 -0.4923098,0.0249"
           style="fill:none;stroke:#000000;stroke-width:0.02645248px;stroke-linecap:round;stroke-linejoin:round;stroke-miterlimit:4;stroke-dasharray:none;stroke-opacity:1"
           inkscape:connector-curvature="0" />
        <path
           id="path3784"
           d="m 4.5299656,286.44994 -0.067601,0.003 -0.066131,0.009 -0.064662,0.0147 -0.061722,0.0235 -0.063192,0.0264 -0.060253,0.0352 -0.058783,0.0382 -0.057314,0.047 -0.042618,0.0337 -0.036739,0.0367 -0.0338,0.0381 -0.030861,0.0396 -0.027922,0.0396 -0.024983,0.0426 -0.022044,0.044 -0.019105,0.0455"
           style="fill:none;stroke:#000000;stroke-width:0.02645248px;stroke-linecap:round;stroke-linejoin:round;stroke-miterlimit:4;stroke-dasharray:none;stroke-opacity:1"
           inkscape:connector-curvature="0" />
        <path
           id="path3786"
           d="m 3.6408683,286.75661 -0.019105,0.0646 -0.014696,0.066 -0.011757,0.0646 -0.00735,0.0675 -0.00441,0.044 v 0.0455 0.0426 l 0.00441,0.044 0.010287,0.0851 0.00735,0.0411 0.011757,0.0426 0.024983,0.0792 0.014696,0.0382 0.017635,0.0396 0.017635,0.0367 0.022044,0.0382 0.022044,0.0367 0.026452,0.0382 0.039679,0.0469 0.020574,0.022 0.023513,0.0235 0.048496,0.0411 0.054374,0.0382 0.0338,0.0191 0.03527,0.0191 0.03674,0.0161 0.038209,0.0147 0.038209,0.0117 0.038209,0.0103 0.039678,0.007 0.041148,0.006 0.039679,10e-4 h 0.041148 l 0.042618,-10e-4 0.044087,-0.003 0.044087,-0.006 0.044088,-0.007 0.045557,-0.0103 0.047027,-0.0117 0.020574,-0.009 0.022044,-0.009 0.020574,-0.0103 0.010287,-0.006 0.011756,-0.004 0.041149,-0.0249 0.041148,-0.0279 0.038209,-0.0352 0.038209,-0.0337 0.036739,-0.0352 0.03674,-0.0352 0.0338,-0.0381 0.0338,-0.0381 0.014696,-0.0205 0.00294,-0.006 0.00441,-0.004 0.00882,-0.009 0.032331,-0.0382 0.00588,-0.0117 0.00294,-0.006 0.00441,-0.004 0.014696,-0.0205 0.029392,-0.0426 0.026453,-0.044 0.026452,-0.0426 0.023513,-0.047 0.023513,-0.0455 0.020574,-0.047 0.022044,-0.0469 0.019105,-0.0499 0.016165,-0.0499 0.013226,-0.0499 0.011757,-0.0469 0.00441,-0.0499 0.00441,-0.047 v -0.0469 l -0.00147,-0.044 -0.00735,-0.044 -0.00735,-0.0411 -0.010287,-0.0411 -0.013226,-0.0382 -0.019105,-0.0381 -0.019105,-0.0352 -0.023513,-0.0352 -0.024983,-0.0323 -0.030861,-0.0323 -0.030861,-0.0293 -0.03527,-0.0293 -0.03674,-0.0264 -0.042618,-0.0249 -0.041148,-0.022 -0.044087,-0.0205 -0.042618,-0.0161 -0.045557,-0.0161 -0.045557,-0.0103 -0.047026,-0.0103 -0.045557,-0.004 -0.049966,-0.004 -0.048496,-0.001 h -0.049966 l -0.048496,0.004 -0.052905,0.004 -0.051435,0.0103 -0.052905,0.0103 -0.052905,0.0161 -0.052905,0.0147 -0.049965,0.0176 -0.095523,0.0411 -0.047027,0.022 -0.044087,0.0264 -0.042618,0.0264 -0.039679,0.0308 -0.041148,0.0294 -0.038209,0.0337 -0.038209,0.0352 -0.03527,0.0381 -0.03527,0.0382 -0.032331,0.0411 -0.032331,0.0426 -0.029392,0.0455"
           style="fill:none;stroke:#000000;stroke-width:0.02645248px;stroke-linecap:round;stroke-linejoin:round;stroke-miterlimit:4;stroke-dasharray:none;stroke-opacity:1"
           inkscape:connector-curvature="0" />
        <path
           id="path3788"
           d="m 3.9171498,287.66194 0.4849619,-0.31547 0.405605,0.24944"
           style="fill:none;stroke:#000000;stroke-width:0.02645248px;stroke-linecap:round;stroke-linejoin:round;stroke-miterlimit:4;stroke-dasharray:none;stroke-opacity:1"
           inkscape:connector-curvature="0" />
        <path
           id="path3790"
           d="M 4.8077167,287.59591 4.700437,287.15425 5.0957549,286.896"
           style="fill:none;stroke:#000000;stroke-width:0.02645248px;stroke-linecap:round;stroke-linejoin:round;stroke-miterlimit:4;stroke-dasharray:none;stroke-opacity:1"
           inkscape:connector-curvature="0" />
        <path
           id="path3792"
           d="M 5.0972245,286.8916 4.644593,286.921 4.5299656,286.44999"
           style="fill:none;stroke:#000000;stroke-width:0.02645248px;stroke-linecap:round;stroke-linejoin:round;stroke-miterlimit:4;stroke-dasharray:none;stroke-opacity:1"
           inkscape:connector-curvature="0" />
        <path
           id="path3794"
           d="m 5.0957549,286.896 0.00147,-0.004"
           style="fill:none;stroke:#000000;stroke-width:0.02645248px;stroke-linecap:round;stroke-linejoin:round;stroke-miterlimit:4;stroke-dasharray:none;stroke-opacity:1"
           inkscape:connector-curvature="0" />
        <path
           id="path3796"
           d="m 4.8077167,287.59591 0.026452,-0.0264 0.00588,-0.007 0.00735,-0.006 0.014696,-0.0117 0.049966,-0.0528 0.044088,-0.0558 0.019105,-0.0293 0.00882,-0.0147 0.00147,-0.004 0.00294,-0.003 0.00588,-0.006 0.032331,-0.0616 0.013226,-0.0323 0.00588,-0.0161 0.00735,-0.0147 0.00441,-0.0176 0.00588,-0.0161 0.010287,-0.0323 0.00882,-0.0337 0.00882,-0.0323 0.00735,-0.0616 0.00441,-0.0572 -0.00147,-0.0558 -0.00588,-0.0514"
           style="fill:none;stroke:#000000;stroke-width:0.02645248px;stroke-linecap:round;stroke-linejoin:round;stroke-miterlimit:4;stroke-dasharray:none;stroke-opacity:1"
           inkscape:connector-curvature="0" />
        <path
           id="path3798"
           d="m 3.9171498,287.66194 0.03674,0.0293 0.041148,0.0264 0.042618,0.022 0.047027,0.0191 0.048496,0.0132 0.051435,0.0117 0.052905,0.006 0.057314,0.003 0.032331,-0.001 0.03527,-0.003 0.067601,-0.009 0.032331,-0.007 0.0338,-0.009 0.032331,-0.0103 0.016165,-0.006 0.017635,-0.004 0.061722,-0.0294 0.014696,-0.009 0.00294,-0.003 0.00441,-10e-4 0.00882,-0.003 0.03233,-0.0161 0.029392,-0.0205 0.030861,-0.0205 0.029392,-0.022 0.014695,-0.0117 0.00735,-0.006 0.00882,-0.004"
           style="fill:none;stroke:#000000;stroke-width:0.02645248px;stroke-linecap:round;stroke-linejoin:round;stroke-miterlimit:4;stroke-dasharray:none;stroke-opacity:1"
           inkscape:connector-curvature="0" />
      </g>
      <path
         inkscape:connector-curvature="0"
         style="fill:#00b000;stroke:#ffffff;stroke-width:0.00293917px;stroke-linecap:round;stroke-linejoin:round;stroke-miterlimit:4;stroke-dasharray:none;stroke-opacity:1;fill-opacity:1"
         d="m 12.279588,287.98483 -6.2501342,8.90073 H 3.5958251 l -3.58725058,-5.48922 1.85314348,-0.57813 3.0273395,4.40782 7.3905305,-8.62928 v 1.38808"
         id="path3802" />
    </g>
  </g>
</svg>
